<svg xmlns="http://www.w3.org/2000/svg" width="160" height="160" viewBox="0 0 160 160" fill="none">
  <rect width="160" height="160" rx="32" fill="#0B1220"/>
  <rect x="38" y="34" width="58" height="88" rx="18" fill="#111B30" stroke="#334155"/>
  <rect x="50" y="52" width="34" height="6" rx="3" fill="#E5E7EB" fill-opacity="0.9"/>
  <rect x="50" y="70" width="10" height="10" rx="3" fill="#22C55E"/>
  <path d="M53 75l2 2 4-5" stroke="#08110C" stroke-width="2.5" stroke-linecap="round" stroke-linejoin="round"/>
  <rect x="66" y="72" width="18" height="6" rx="3" fill="#38BDF8" fill-opacity="0.9"/>
  <rect x="50" y="88" width="10" height="10" rx="3" fill="#A78BFA"/>
  <path d="M53 93l2 2 4-5" stroke="#140B26" stroke-width="2.5" stroke-linecap="round" stroke-linejoin="round"/>
  <rect x="66" y="90" width="14" height="6" rx="3" fill="#E5E7EB" fill-opacity="0.75"/>
  <circle cx="118" cy="54" r="22" fill="#F59E0B" fill-opacity="0.95"/>
  <circle cx="118" cy="54" r="12" fill="#FFF7ED"/>
  <path d="M118 36v-8M118 80v-8M136 54h8M92 54h8M130.728 41.272l5.657-5.657M100.615 71.385l5.657-5.657M130.728 66.728l5.657 5.657M100.615 36.615l5.657 5.657" stroke="#FDE68A" stroke-width="4" stroke-linecap="round"/>
</svg>
